<svg xmlns="http://www.w3.org/2000/svg" xmlns:xlink="http://www.w3.org/1999/xlink" xmlns:inkscape="http://www.inkscape.org/namespaces/inkscape" version="1.1" width="360" height="252" viewBox="0 0 360 252">
<g>
<path transform="matrix(1,0,0,-1,0,252)" stroke-width="2.4" stroke-linecap="butt" stroke-miterlimit="4" stroke-linejoin="miter" fill="none" stroke="#000000" d="M63.602 36H66.75M339.602 36H336.449"/>
<text xml:space="preserve" transform="matrix(1 0 -0 1 0 252)" font-size="12" font-family="Nimbus Sans L,sans-serif"><tspan y="-32" x="49.7282">0</tspan></text>
<path transform="matrix(1,0,0,-1,0,252)" stroke-width="2.4" stroke-linecap="butt" stroke-miterlimit="4" stroke-linejoin="miter" fill="none" stroke="#000000" d="M63.602 56.148H66.75M339.602 56.148H336.449"/>
<text xml:space="preserve" transform="matrix(1 0 -0 1 0 252)" font-size="12" font-family="Nimbus Sans L,sans-serif"><tspan y="-52.15" x="29.7126 36.3606 43.0086 49.656599">1000</tspan></text>
<path transform="matrix(1,0,0,-1,0,252)" stroke-width="2.4" stroke-linecap="butt" stroke-miterlimit="4" stroke-linejoin="miter" fill="none" stroke="#000000" d="M63.602 76.301H66.75M339.602 76.301H336.449"/>
<text xml:space="preserve" transform="matrix(1 0 -0 1 0 252)" font-size="12" font-family="Nimbus Sans L,sans-serif"><tspan y="-72.3" x="29.7126 36.3606 43.0086 49.656599">2000</tspan></text>
<path transform="matrix(1,0,0,-1,0,252)" stroke-width="2.4" stroke-linecap="butt" stroke-miterlimit="4" stroke-linejoin="miter" fill="none" stroke="#000000" d="M63.602 96.5H66.75M339.602 96.5H336.449"/>
<text xml:space="preserve" transform="matrix(1 0 -0 1 0 252)" font-size="12" font-family="Nimbus Sans L,sans-serif"><tspan y="-92.5" x="29.7126 36.3606 43.0086 49.656599">3000</tspan></text>
<path transform="matrix(1,0,0,-1,0,252)" stroke-width="2.4" stroke-linecap="butt" stroke-miterlimit="4" stroke-linejoin="miter" fill="none" stroke="#000000" d="M63.602 116.648H66.75M339.602 116.648H336.449"/>
<text xml:space="preserve" transform="matrix(1 0 -0 1 0 252)" font-size="12" font-family="Nimbus Sans L,sans-serif"><tspan y="-112.65" x="29.7126 36.3606 43.0086 49.656599">4000</tspan></text>
<path transform="matrix(1,0,0,-1,0,252)" stroke-width="2.4" stroke-linecap="butt" stroke-miterlimit="4" stroke-linejoin="miter" fill="none" stroke="#000000" d="M63.602 136.801H66.75M339.602 136.801H336.449"/>
<text xml:space="preserve" transform="matrix(1 0 -0 1 0 252)" font-size="12" font-family="Nimbus Sans L,sans-serif"><tspan y="-132.8" x="29.7126 36.3606 43.0086 49.656599">5000</tspan></text>
<path transform="matrix(1,0,0,-1,0,252)" stroke-width="2.4" stroke-linecap="butt" stroke-miterlimit="4" stroke-linejoin="miter" fill="none" stroke="#000000" d="M63.602 156.949H66.75M339.602 156.949H336.449"/>
<text xml:space="preserve" transform="matrix(1 0 -0 1 0 252)" font-size="12" font-family="Nimbus Sans L,sans-serif"><tspan y="-152.95" x="29.7126 36.3606 43.0086 49.656599">6000</tspan></text>
<path transform="matrix(1,0,0,-1,0,252)" stroke-width="2.4" stroke-linecap="butt" stroke-miterlimit="4" stroke-linejoin="miter" fill="none" stroke="#000000" d="M63.602 177.102H66.75M339.602 177.102H336.449"/>
<text xml:space="preserve" transform="matrix(1 0 -0 1 0 252)" font-size="12" font-family="Nimbus Sans L,sans-serif"><tspan y="-173.1" x="29.7126 36.3606 43.0086 49.656599">7000</tspan></text>
<path transform="matrix(1,0,0,-1,0,252)" stroke-width="2.4" stroke-linecap="butt" stroke-miterlimit="4" stroke-linejoin="miter" fill="none" stroke="#000000" d="M63.602 197.301H66.75M339.602 197.301H336.449"/>
<text xml:space="preserve" transform="matrix(1 0 -0 1 0 252)" font-size="12" font-family="Nimbus Sans L,sans-serif"><tspan y="-193.3" x="29.7126 36.3606 43.0086 49.656599">8000</tspan></text>
<path transform="matrix(1,0,0,-1,0,252)" stroke-width="2.4" stroke-linecap="butt" stroke-miterlimit="4" stroke-linejoin="miter" fill="none" stroke="#000000" d="M63.602 217.449H66.75M339.602 217.449H336.449"/>
<text xml:space="preserve" transform="matrix(1 0 -0 1 0 252)" font-size="12" font-family="Nimbus Sans L,sans-serif"><tspan y="-213.45" x="29.7126 36.3606 43.0086 49.656599">9000</tspan></text>
<path transform="matrix(1,0,0,-1,0,252)" stroke-width="2.4" stroke-linecap="butt" stroke-miterlimit="4" stroke-linejoin="miter" fill="none" stroke="#000000" d="M63.602 237.602H66.75M339.602 237.602H336.449"/>
<text xml:space="preserve" transform="matrix(1 0 -0 1 0 252)" font-size="12" font-family="Nimbus Sans L,sans-serif"><tspan y="-233.6" x="23.0407 29.688702 36.3367 42.9847 49.632699">10000</tspan></text>
<path transform="matrix(1,0,0,-1,0,252)" stroke-width="2.4" stroke-linecap="butt" stroke-miterlimit="4" stroke-linejoin="miter" fill="none" stroke="#000000" d="M63.602 36V39.148M63.602 237.602V234.449"/>
<text xml:space="preserve" transform="matrix(1 0 -0 1 0 252)" font-size="12" font-family="Nimbus Sans L,sans-serif"><tspan y="-20" x="61.9321">0</tspan></text>
<path transform="matrix(1,0,0,-1,0,252)" stroke-width="2.4" stroke-linecap="butt" stroke-miterlimit="4" stroke-linejoin="miter" fill="none" stroke="#000000" d="M98.102 36V39.148M98.102 237.602V234.449"/>
<text xml:space="preserve" transform="matrix(1 0 -0 1 0 252)" font-size="12" font-family="Nimbus Sans L,sans-serif"><tspan y="-20" x="96.4321">5</tspan></text>
<path transform="matrix(1,0,0,-1,0,252)" stroke-width="2.4" stroke-linecap="butt" stroke-miterlimit="4" stroke-linejoin="miter" fill="none" stroke="#000000" d="M132.602 36V39.148M132.602 237.602V234.449"/>
<text xml:space="preserve" transform="matrix(1 0 -0 1 0 252)" font-size="12" font-family="Nimbus Sans L,sans-serif"><tspan y="-20" x="127.596 134.256">10</tspan></text>
<path transform="matrix(1,0,0,-1,0,252)" stroke-width="2.4" stroke-linecap="butt" stroke-miterlimit="4" stroke-linejoin="miter" fill="none" stroke="#000000" d="M167.102 36V39.148M167.102 237.602V234.449"/>
<text xml:space="preserve" transform="matrix(1 0 -0 1 0 252)" font-size="12" font-family="Nimbus Sans L,sans-serif"><tspan y="-20" x="162.096 168.756">15</tspan></text>
<path transform="matrix(1,0,0,-1,0,252)" stroke-width="2.4" stroke-linecap="butt" stroke-miterlimit="4" stroke-linejoin="miter" fill="none" stroke="#000000" d="M201.602 36V39.148M201.602 237.602V234.449"/>
<text xml:space="preserve" transform="matrix(1 0 -0 1 0 252)" font-size="12" font-family="Nimbus Sans L,sans-serif"><tspan y="-20" x="196.596 203.256">20</tspan></text>
<path transform="matrix(1,0,0,-1,0,252)" stroke-width="2.4" stroke-linecap="butt" stroke-miterlimit="4" stroke-linejoin="miter" fill="none" stroke="#000000" d="M236.102 36V39.148M236.102 237.602V234.449"/>
<text xml:space="preserve" transform="matrix(1 0 -0 1 0 252)" font-size="12" font-family="Nimbus Sans L,sans-serif"><tspan y="-20" x="231.096 237.756">25</tspan></text>
<path transform="matrix(1,0,0,-1,0,252)" stroke-width="2.4" stroke-linecap="butt" stroke-miterlimit="4" stroke-linejoin="miter" fill="none" stroke="#000000" d="M270.602 36V39.148M270.602 237.602V234.449"/>
<text xml:space="preserve" transform="matrix(1 0 -0 1 0 252)" font-size="12" font-family="Nimbus Sans L,sans-serif"><tspan y="-20" x="265.596 272.256">30</tspan></text>
<path transform="matrix(1,0,0,-1,0,252)" stroke-width="2.4" stroke-linecap="butt" stroke-miterlimit="4" stroke-linejoin="miter" fill="none" stroke="#000000" d="M305.102 36V39.148M305.102 237.602V234.449"/>
<text xml:space="preserve" transform="matrix(1 0 -0 1 0 252)" font-size="12" font-family="Nimbus Sans L,sans-serif"><tspan y="-20" x="300.096 306.756">35</tspan></text>
<path transform="matrix(1,0,0,-1,0,252)" stroke-width="2.4" stroke-linecap="butt" stroke-miterlimit="4" stroke-linejoin="miter" fill="none" stroke="#000000" d="M339.602 36V39.148M339.602 237.602V234.449"/>
<text xml:space="preserve" transform="matrix(1 0 -0 1 0 252)" font-size="12" font-family="Nimbus Sans L,sans-serif"><tspan y="-20" x="334.596 341.256">40</tspan></text>
<path transform="matrix(1,0,0,-1,0,252)" stroke-width="2.4" stroke-linecap="butt" stroke-miterlimit="4" stroke-linejoin="miter" fill="none" stroke="#000000" d="M63.602 237.602H339.602V36H63.602Z"/>
<text xml:space="preserve" transform="matrix(1 0 -0 1 0 252)" font-size="12" font-family="Nimbus Sans L,sans-serif"><tspan y="-2" x="190.266 193.57802 196.21802 206.19002">time</tspan><tspan y="-221.45001" x="292.446">S</tspan></text>
<path transform="matrix(1,0,0,-1,0,252)" stroke-width="2.4" stroke-linecap="butt" stroke-miterlimit="4" stroke-linejoin="miter" fill="none" stroke="#0000ff" d="M307.648 225.449H325.199M63.602 237.398H63.75L64 237.352H64.699L65.051 237.301 65.398 237.25H65.801L66.199 237.199 66.602 237.148 67 237.102 67.398 237.051 67.801 237 68.25 236.949 68.648 236.898 69.051 236.852 69.5 236.75 69.898 236.699 70.352 236.602 71.25 236.398 71.648 236.301 72.102 236.199 72.551 236.051 73 235.898 73.449 235.75 73.898 235.551 74.352 235.398 74.801 235.199 75.699 234.699 76.199 234.449 76.648 234.148 77.102 233.852 77.551 233.5 78.051 233.102 78.5 232.699 79 232.25 79.449 231.75 79.949 231.199 80.449 230.602 80.949 229.949 81.449 229.25 81.898 228.449 82.449 227.602 82.949 226.648 83.449 225.602 83.949 224.449 84.5 223.148 85.051 221.75 85.602 220.199 86.148 218.5 86.699 216.602 87.301 214.5 87.898 212.148 88.551 209.449 89.199 206.5 89.898 203.051 90.648 199.102 91.449 194.398 92.352 188.699 93.301 182.551 94.199 176.051 95.148 169.25 96.051 162.199 97 155.102 97.898 147.898 98.801 140.801 99.75 133.852 100.648 127.148 101.602 120.699 102.5 114.602 103.449 108.898 104.398 103.25 105.5 97.449 106.852 91.199 108.199 85.75 109.301 81.75 110.398 78.25 111.551 75.102 112.648 72.352 113.75 69.949 114.852 67.801 116 65.898 117.102 64.25 118.25 62.699 119.449 61.352 120.699 60.051 122 58.852 123.449 57.75 125 56.75 126.551 55.852 127.801 55.25 129.102 54.699 130.398 54.199 131.648 53.75 132.949 53.352 134.25 53.051 135.352 52.75 136.5 52.5 137.602 52.301 138.75 52.102 139.852 51.898 140.949 51.75 142.102 51.602 143.199 51.5 144.352 51.352 145.449 51.25 146.602 51.148 147.699 51.051 148.852 51 149.949 50.898 151.102 50.852 152.199 50.75 153.352 50.699 154.449 50.648 155.551 50.602 156.699 50.551H157.801L158.949 50.5 160.051 50.449H161.199L162.301 50.398H163.449L164.551 50.352H166.801L167.949 50.301H170.148L171.301 50.25H175.801L176.898 50.199H184.75L185.898 50.148H339.602"/>
<text xml:space="preserve" transform="matrix(1 0 -0 1 0 252)" font-size="12" font-family="Nimbus Sans L,sans-serif"><tspan y="-203.45" x="297.114">I</tspan></text>
<path transform="matrix(1,0,0,-1,0,252)" stroke-width="2.4" stroke-linecap="butt" stroke-miterlimit="4" stroke-linejoin="miter" fill="none" stroke="#ff0000" d="M307.648 207.449H325.199M63.602 36.199H64L64.352 36.25H65.051L65.398 36.301H65.801L66.199 36.352H66.602L67 36.398H67.398L67.801 36.449 68.25 36.5H68.648L69.051 36.551 69.5 36.602 69.898 36.648 70.352 36.699 70.801 36.801 71.25 36.852 71.648 36.898 72.102 37 72.551 37.102 73 37.148 73.449 37.25 73.898 37.398 74.352 37.5 74.801 37.648 75.25 37.801 75.699 37.949 76.199 38.102 76.648 38.301 77.102 38.5 77.551 38.75 78.051 38.949 78.5 39.25 79 39.551 79.449 39.852 79.949 40.199 80.449 40.602 80.949 41 81.449 41.449 81.898 41.949 82.449 42.5 82.949 43.102 83.449 43.75 83.949 44.449 84.5 45.25 85.051 46.148 85.602 47.102 86.148 48.148 86.699 49.301 87.301 50.602 87.898 52 88.551 53.602 89.199 55.352 89.898 57.352 90.648 59.602 91.449 62.25 92.352 65.398 93.301 68.602 94.199 71.898 95.148 75.199 96.051 78.398 97 81.449 97.898 84.25 98.801 86.699 99.75 88.801 100.648 90.5 101.602 91.801 102.5 92.602 103.449 93 104.398 92.949 105.5 92.398 106.852 91.102 108.199 89.199 109.301 87.301 110.398 85.148 111.551 82.852 112.648 80.449 114.852 75.551 116 73.102 117.102 70.699 118.25 68.352 119.449 65.949 120.699 63.551 122 61.199 123.449 58.852 125 56.449 126.551 54.301 127.801 52.648 129.102 51.148 130.398 49.75 131.648 48.5 132.949 47.301 134.25 46.25 135.352 45.398 136.5 44.602 137.602 43.898 138.75 43.25 139.852 42.648 140.949 42.051 142.102 41.551 143.199 41.102 144.352 40.648 145.449 40.25 146.602 39.898 147.699 39.551 148.852 39.25 149.949 38.949 151.102 38.699 152.199 38.5 153.352 38.25 154.449 38.051 155.551 37.898 156.699 37.75 157.801 37.602 158.949 37.449 160.051 37.301 161.199 37.199 162.301 37.102 163.449 37 164.551 36.898 165.699 36.852 166.801 36.75 167.949 36.699 169.051 36.648 170.148 36.602 171.301 36.551 172.398 36.5 173.551 36.449 174.648 36.398 175.801 36.352H176.898L178.051 36.301H179.148L180.301 36.25H181.398L182.551 36.199H184.75L185.898 36.148H188.148L189.25 36.102H194.898L196 36.051H208.352L209.5 36H339.602"/>
<text xml:space="preserve" transform="matrix(1 0 -0 1 0 252)" font-size="12" font-family="Nimbus Sans L,sans-serif"><tspan y="-185.45" x="291.786">R</tspan></text>
<path transform="matrix(1,0,0,-1,0,252)" stroke-width="2.4" stroke-linecap="butt" stroke-miterlimit="4" stroke-linejoin="miter" fill="none" stroke="#00ff00" d="M307.648 189.449H325.199M63.602 36H64.699L65.051 36.051H66.199L66.602 36.102H67.398L67.801 36.148H68.648L69.051 36.199H69.5L69.898 36.25 70.352 36.301H70.801L71.25 36.352 71.648 36.398 72.102 36.449 73.449 36.602 73.898 36.648 74.352 36.699 74.801 36.801 75.25 36.852 75.699 36.949 76.199 37.051 76.648 37.148 77.102 37.25 77.551 37.398 78.051 37.5 78.5 37.648 79 37.852 79.449 38 80.449 38.398 81.449 38.898 81.898 39.199 82.449 39.551 82.949 39.898 83.449 40.25 83.949 40.699 84.5 41.148 85.051 41.699 85.602 42.301 86.148 42.949 86.699 43.699 87.301 44.5 87.898 45.449 88.551 46.551 89.199 47.75 89.898 49.199 90.648 50.898 91.449 52.949 92.352 55.551 93.301 58.449 94.199 61.648 95.148 65.148 96.051 68.949 97 73.102 97.898 77.449 98.801 82.102 99.75 86.949 100.648 91.949 101.602 97.102 102.5 102.398 103.449 107.699 104.398 113.398 105.5 119.75 106.852 127.301 108.199 134.648 109.301 140.551 110.398 146.199 111.551 151.648 112.648 156.801 113.75 161.648 114.852 166.25 116 170.602 117.102 174.648 118.25 178.551 119.449 182.301 120.699 186 122 189.551 123.449 193 125 196.398 126.551 199.449 127.801 201.699 129.102 203.75 130.398 205.648 131.648 207.352 132.949 208.898 134.25 210.301 135.352 211.449 136.5 212.449 137.602 213.398 138.75 214.25 139.852 215.051 140.949 215.75 142.102 216.449 143.199 217.051 144.352 217.602 145.449 218.102 146.602 218.551 147.699 219 148.852 219.352 149.949 219.75 151.102 220.051 152.199 220.352 153.352 220.602 154.449 220.852 155.551 221.102 156.699 221.301 157.801 221.5 158.949 221.648 160.051 221.801 161.199 221.949 162.301 222.102 163.449 222.199 164.551 222.301 165.699 222.398 166.801 222.5 167.949 222.602 169.051 222.648 170.148 222.75 171.301 222.801 172.398 222.852 173.551 222.898 174.648 222.949 175.801 223 176.898 223.051 178.051 223.102H179.148L180.301 223.148H181.398L182.551 223.199H183.648L184.75 223.25H185.898L187 223.301H189.25L190.398 223.352H194.898L196 223.398H205L206.102 223.449H339.602"/>
<path transform="matrix(1,0,0,-1,0,252)" stroke-width="2.4" stroke-linecap="butt" stroke-miterlimit="4" stroke-linejoin="miter" fill="none" stroke="#000000" d="M63.602 237.602H339.602V36H63.602Z"/>
</g>
</svg>
